Coordinates
version=1
nRows=21
nColumns=22
inDegrees=yes

Units are S.I. units (second, meters, Newtons, ...)
If the header above contains a line with 'inDegrees', this indicates whether rotational values are in degrees (yes) or radians (no).

endheader
time	pelvis_tilt	pelvis_list	pelvis_rotation	pelvis_tx	pelvis_ty	pelvis_tz	hip_flexion_r	hip_adduction_r	hip_rotation_r	knee_angle_r	ankle_angle_r	subtalar_angle_r	hip_flexion_l	hip_adduction_l	hip_rotation_l	knee_angle_l	ankle_angle_l	subtalar_angle_l	lumbar_extension	lumbar_bending	lumbar_rotation
      1.31000000	    -11.75823468	      2.91747811	    -38.67636283	     -0.94317446	      0.95943625	     -0.10343961	     12.97466386	     10.04330413	     -0.08555615	    -21.91836965	     24.77368090	    -12.02919229	     44.39347962	     -4.06621638	      3.24805039	    -33.91367818	     15.72804898	      2.42440993	     -4.11823710	      5.59046043	     11.59338640
      1.32000000	    -11.75062285	      2.90229815	    -38.85434890	     -0.93850363	      0.95852851	     -0.10018972	     12.56221330	     10.04844355	      0.10583870	    -21.90191138	     25.10621628	    -11.97010573	     44.56205838	     -4.13511351	      3.00697823	    -33.14981477	     15.56504778	      2.72803926	     -4.16241767	      5.60833613	     11.67953341
      1.33000000	    -11.75251180	      2.87487918	    -39.03856074	     -0.93368964	      0.95756159	     -0.09682046	     12.13111258	     10.06721171	      0.30040046	    -21.87255461	     25.43909642	    -11.90568398	     44.72737956	     -4.23396507	      2.76357006	    -32.45298664	     15.41654456	      2.98170636	     -4.19773432	      5.63756487	     11.76498464
      1.34000000	    -11.75708540	      2.83603852	    -39.23178227	     -0.92871013	      0.95655143	     -0.09334188	     11.67688830	     10.09282948	      0.50575481	    -21.83607347	     25.76461375	    -11.82712835	     44.88034162	     -4.35818928	      2.51176938	    -31.82773385	     15.29886779	      3.20214804	     -4.22795792	      5.68017795	     11.85287895
      1.35000000	    -11.76691918	      2.78746163	    -39.43425750	     -0.92359604	      0.95549541	     -0.08974096	     11.20446803	     10.12775951	      0.72318762	    -21.79257933	     26.08372348	    -11.73273826	     45.02369725	     -4.50921372	      2.25397983	    -31.27955980	     15.21744031	      3.38646376	     -4.25400867	      5.72716225	     11.94289890
      1.36000000	    -11.77865070	      2.73515630	    -39.65107238	     -0.91831753	      0.95439947	     -0.08604483	     10.71548406	     10.16029262	      0.95050955	    -21.74487954	     26.39322052	    -11.61973234	     45.15409372	     -4.67836959	      1.98758678	    -30.81237705	     15.17695109	      3.53626364	     -4.27218017	      5.78322713	     12.03940531
      1.37000000	    -11.79077456	      2.68226863	    -39.88510643	     -0.91287911	      0.95326753	     -0.08224335	     10.21383203	     10.18771843	      1.19053092	    -21.70051986	     26.69617246	    -11.48795436	     45.26708617	     -4.86170762	      1.71374788	    -30.42722673	     15.17347766	      3.65358879	     -4.28108599	      5.83966156	     12.14660464
      1.38000000	    -11.80168297	      2.63251177	    -40.13780032	     -0.90727883	      0.95210128	     -0.07835772	      9.70733234	     10.20494412	      1.45321004	    -21.67234747	     26.99542940	    -11.34186462	     45.35899789	     -5.05151495	      1.43453005	    -30.12296609	     15.19873362	      3.74027912	     -4.28180910	      5.89683519	     12.26671538
      1.39000000	    -11.78246409	      2.58558737	    -40.40137036	     -0.90147379	      0.95095584	     -0.07437686	      9.16518627	     10.18678090	      1.72251636	    -21.65071935	     27.28576654	    -11.10576085	     45.39515249	     -5.22508156	      1.13924213	    -29.89306884	     15.23058285	      3.82690026	     -4.29529910	      5.93075468	     12.37240292
      1.40000000	    -11.80735248	      2.55452941	    -40.68869660	     -0.89554478	      0.94969266	     -0.07032615	      8.68305700	     10.18344362	      2.03211628	    -21.67907060	     27.57930135	    -10.97083964	     45.45373194	     -5.41394628	      0.87778341	    -29.75056566	     15.26351837	      3.85192089	     -4.25197197	      5.98985904	     12.51754195
      1.41000000	    -11.76293424	      2.52923138	    -40.98215687	     -0.88933137	      0.94853263	     -0.06617079	      8.12466966	     10.10542300	      2.32786415	    -21.69743213	     27.82656471	    -10.64917543	     45.40885328	     -5.55723212	      0.55844562	    -29.67576338	     15.26704438	      3.88063715	     -4.24660084	      5.99619368	     12.65236403
      1.42000000	    -11.77664897	      2.52116553	    -41.28968934	     -0.88300146	      0.94724847	     -0.06195070	      7.64568858	     10.05100198	      2.66456833	    -21.77634357	     28.07595720	    -10.45592742	     45.39245590	     -5.70930396	      0.30404372	    -29.68452590	     15.21759318	      3.86935266	     -4.16962880	      6.03562255	     12.81164300
      1.43000000	    -11.73806484	      2.52267741	    -41.59413087	     -0.87640637	      0.94603517	     -0.05764983	      7.12504969	      9.93248202	      2.99709662	    -21.87521149	     28.28651849	    -10.10036491	     45.30232664	     -5.81129629	      0.00573402	    -29.78848456	     15.10592700	      3.82050040	     -4.11537043	      6.03565092	     12.93782644
      1.44000000	    -11.70616577	      2.52468266	    -41.87181836	     -0.86960971	      0.94481217	     -0.05333495	      6.63087178	      9.80252780	      3.31459666	    -22.03139606	     28.51130955	     -9.65476836	     45.19247262	     -5.86705335	     -0.20282023	    -29.98756960	     14.85999597	      3.70933927	     -4.04468398	      6.04671729	     13.02208763
      1.45000000	    -11.68965875	      2.55879662	    -42.16423013	     -0.86265702	      0.94356926	     -0.04891948	      6.18910776	      9.65523797	      3.67547668	    -22.24318135	     28.64385967	     -9.33595096	     45.09755461	     -5.90776808	     -0.42629452	    -30.30715835	     14.50053401	      3.58591907	     -3.92256512	      6.04381440	     13.10683460
      1.46000000	    -11.64285355	      2.58156208	    -42.39780901	     -0.85540450	      0.94241252	     -0.04451667	      5.72808803	      9.46814843	      3.95136514	    -22.49291069	     28.79477175	     -8.80473273	     44.96435174	     -5.86668366	     -0.55948399	    -30.74620486	     13.98177737	      3.35340761	     -3.81552298	      6.03718103	     13.13177449
      1.47000000	    -11.57814598	      2.62394312	    -42.60514153	     -0.84794607	      0.94132505	     -0.04008953	      5.30147823	      9.24592207	      4.22285510	    -22.82086430	     28.87115884	     -8.28433755	     44.83056361	     -5.76288622	     -0.64979129	    -31.31022025	     13.33606914	      3.09423328	     -3.69658125	      6.00497858	     13.10591303
      1.48000000	    -11.49158250	      2.65122440	    -42.74957793	     -0.84023406	      0.94035158	     -0.03568390	      4.87774857	      9.00672494	      4.42667642	    -23.21288428	     28.90983922	     -7.67201399	     44.68651527	     -5.58614135	     -0.62961810	    -31.99658401	     12.60524448	      2.77519240	     -3.59346339	      5.97387358	     13.01356156
      1.49000000	    -11.35763739	      2.69352953	    -42.83964075	     -0.83226016	      0.93953328	     -0.03126780	      4.46405650	      8.71073884	      4.55963238	    -23.68130912	     28.87182188	     -7.03648352	     44.52513718	     -5.32465640	     -0.57940963	    -32.77588198	     11.86415827	      2.43003319	     -3.49765670	      5.89559788	     12.85409878
      1.50000000	    -11.19205893	      2.71264976	    -42.88534942	     -0.82408965	      0.93889645	     -0.02684901	      4.05837130	      8.40614070	      4.63462523	    -24.24380560	     28.77664254	     -6.27664870	     44.34175430	     -5.02141152	     -0.46919940	    -33.63457236	     11.20332366	      2.01526424	     -3.43621659	      5.81028247	     12.65988536
      1.51000000	    -10.97733301	      2.73700837	    -42.88340177	     -0.81570794	      0.93846126	     -0.02244702	      3.68062027	      8.05639210	      4.64175371	    -24.92488248	     28.60414361	     -5.43535303	     44.11833765	     -4.65310069	     -0.34254984	    -34.50997766	     10.67111947	      1.55343543	     -3.39837774	      5.68490469	     12.42755011
